PathFileType	4	(X/Y/Z)	C:/Users/opensim2020/Desktop/walking_exp_matlab/subject06_walking21_straight_02.trc	
DataRate	CameraRate	NumFrames	NumMarkers	Units	OrigDataRate	OrigDataStartFrame	OrigNumFrames	
100.00	100.00	4	44	mm	100.00	1411	172	
Frame#	Time	LFHD			RFHD			LBHD			RBHD			C7			T10			CLAV			STRN			RBAK			LSHO			LUPA			LELB			LFRM			LWRA			LWRB			LFIN			RSHO			RUPA			RELB			RFRM			RWRA			RWRB			RFIN			LASI			RASI			LPSI			RPSI			LTHI			LKNE			LTIB			LANK			LHEE			LTOE			RTHI			RKNE			RTIB			RANK			RHEE			RTOE			*39			*40			*41			*42			*43			
		X1	Y1	Z1	X2	Y2	Z2	X3	Y3	Z3	X4	Y4	Z4	X5	Y5	Z5	X6	Y6	Z6	X7	Y7	Z7	X8	Y8	Z8	X9	Y9	Z9	X10	Y10	Z10	X11	Y11	Z11	X12	Y12	Z12	X13	Y13	Z13	X14	Y14	Z14	X15	Y15	Z15	X16	Y16	Z16	X17	Y17	Z17	X18	Y18	Z18	X19	Y19	Z19	X20	Y20	Z20	X21	Y21	Z21	X22	Y22	Z22	X23	Y23	Z23	X24	Y24	Z24	X25	Y25	Z25	X26	Y26	Z26	X27	Y27	Z27	X28	Y28	Z28	X29	Y29	Z29	X30	Y30	Z30	X31	Y31	Z31	X32	Y32	Z32	X33	Y33	Z33	X34	Y34	Z34	X35	Y35	Z35	X36	Y36	Z36	X37	Y37	Z37	X38	Y38	Z38	X39	Y39	Z39	X40	Y40	Z40	X41	Y41	Z41	X42	Y42	Z42	X43	Y43	Z43	X44	Y44	Z44	

151	1.500	1503.71741	-550.87097	1660.96753	1373.11707	-533.58563	1645.84741	1523.83411	-420.80081	1602.97034	1396.11414	-404.67984	1593.14453	1464.30615	-415.03256	1442.55676	1451.05884	-392.69836	1111.48572	1456.15332	-528.06683	1369.61108	1459.37439	-576.61102	1197.32458	1384.86035	-344.93500	1268.44531	1622.00195	-480.16901	1397.73169	1695.81726	-460.83591	1197.40466	1708.45715	-437.25626	1087.35205	1736.77185	-437.86029	939.08258	1696.27393	-474.70880	812.77979	1739.64905	-418.95526	822.25372	1738.98535	-438.53223	732.79102	1297.86914	-472.14325	1400.00732	1209.15894	-434.82141	1202.75452	1195.56885	-450.92340	1081.57397	1180.73596	-494.16510	970.13586	1216.60303	-592.82172	859.06268	1178.39258	-540.39587	841.31506	1177.85571	-598.87610	781.71252	1554.00842	-584.30164	969.97552	1335.83496	-568.26459	958.87921	1536.34033	-422.42398	983.29999	1369.38159	-419.04938	972.35590	1621.22363	-573.38397	655.50995	1591.80920	-610.65674	497.61655	1582.56750	-580.50238	241.42723	1541.51184	-572.84296	71.03785	1497.37451	-530.53809	57.98821	1536.64465	-716.21094	42.00383	1291.96643	-560.22412	614.54114	1308.80859	-592.19238	492.23917	1325.69678	-403.45712	330.19321	1375.27722	-250.69553	232.19595	1421.75708	-213.06398	252.26805	1377.94287	-290.76682	79.90869	1457.71375	-442.30963	1694.33289												 
152	1.510	1502.53149	-564.75580	1663.36218	1372.01563	-547.12195	1648.14856	1523.64441	-434.31802	1605.93774	1395.46973	-417.99280	1595.83875	1464.07605	-428.11414	1445.13257	1451.77332	-405.80475	1114.08252	1455.50354	-541.31183	1372.10425	1459.01025	-589.65210	1199.82617	1385.77490	-357.79770	1270.80188	1621.43726	-494.14328	1400.74097	1695.86804	-478.63324	1200.18640	1709.08679	-457.35333	1089.73511	1737.83008	-461.92273	941.54553	1697.11670	-500.75601	815.84760	1741.22168	-445.65097	824.34271	1740.98608	-467.84030	735.56012	1297.50842	-484.35391	1402.20398	1209.85620	-446.10925	1204.62390	1196.75891	-461.54535	1083.26685	1181.72607	-501.31418	970.37585	1216.59375	-596.72626	855.91956	1178.65295	-543.52057	839.99304	1177.97827	-599.96820	778.19836	1554.25854	-596.90833	971.94354	1336.07935	-581.38062	961.87128	1536.65210	-435.39075	985.74561	1369.79333	-432.15472	975.28070	1620.58545	-581.68475	656.27203	1591.53015	-616.27466	497.49298	1582.49316	-583.11481	241.43486	1541.26624	-572.87592	71.17800	1497.17090	-530.44287	58.12656	1536.47961	-716.13831	42.08567	1292.74365	-579.75806	618.91370	1310.52039	-615.19501	497.63834	1326.25366	-430.60886	331.17017	1375.26611	-279.96570	228.19490	1421.87329	-240.57019	246.26501	1377.00696	-328.76718	79.60807	1456.74438	-456.11014	1696.94824												 
153	1.520	1501.15161	-578.56482	1665.57678	1370.76196	-560.46667	1650.18921	1522.64343	-448.15134	1608.63440	1394.63306	-431.33743	1598.36646	1463.86279	-441.56656	1447.57288	1452.53882	-418.88892	1116.66016	1454.86035	-554.38251	1374.49268	1458.62268	-602.74408	1202.27356	1386.44727	-370.65216	1273.21765	1620.83594	-507.96887	1403.73853	1695.88940	-496.09982	1202.97595	1709.88147	-477.77164	1092.17725	1738.73035	-486.08798	944.26947	1697.92188	-527.60492	819.46295	1742.28162	-472.56018	826.54736	1742.87524	-497.65665	738.77734	1297.15393	-496.46426	1404.34705	1210.51733	-457.38400	1206.48901	1197.99158	-471.92181	1084.98486	1182.51819	-508.39975	970.88770	1216.44495	-600.26935	853.05176	1178.73523	-546.20392	838.88593	1177.89990	-600.67975	775.16174	1554.76086	-609.26404	973.58026	1336.43250	-594.45776	964.85278	1536.96606	-448.34470	987.98572	1370.01184	-445.35593	978.18701	1619.96155	-590.07373	656.79932	1591.19421	-621.89551	497.20093	1582.30786	-586.15808	241.60054	1541.10962	-573.05066	71.37939	1497.26160	-530.63910	58.19091	1536.27014	-716.03619	42.06181	1293.43774	-599.03198	623.48895	1312.20435	-637.81781	503.37643	1326.82080	-457.57117	331.05814	1375.56909	-309.69720	223.18617	1422.28381	-268.84073	238.67000	1375.67468	-369.59665	80.47311	1455.65405	-469.99915	1699.55835												 
154	1.530	1499.64038	-592.33344	1667.61963	1369.39600	-573.82886	1651.99817	1521.82593	-461.59552	1611.31091	1393.86841	-444.49164	1600.81348	1464.12561	-453.95462	1449.97070	1453.29163	-431.87659	1119.05835	1454.18384	-567.46484	1376.74268	1458.29187	-615.84485	1204.58777	1386.97314	-383.45355	1275.51160	1620.13794	-521.73456	1406.61841	1695.87537	-513.35089	1205.87207	1710.49280	-497.86002	1094.71753	1739.50623	-510.34427	947.08691	1698.61255	-554.89117	823.44727	1743.25623	-500.00110	829.11035	1744.35120	-528.05652	742.33441	1296.79785	-508.67209	1406.29468	1211.05957	-468.64963	1208.28064	1199.26318	-481.69083	1086.55872	1183.27661	-515.44281	971.51923	1216.10730	-603.88666	850.52704	1178.67151	-548.99951	838.29822	1177.77344	-601.15747	772.36847	1555.39697	-621.54926	974.94336	1336.84521	-607.65436	967.75934	1537.19727	-461.22458	990.00885	1370.26367	-458.63815	981.02136	1619.45129	-598.68134	657.02203	1590.85413	-627.33063	496.82309	1581.87415	-589.08203	241.69931	1540.88354	-573.24823	71.54855	1497.14880	-530.66156	58.40462	1536.08911	-716.01318	42.15836	1293.90405	-617.98627	628.11261	1313.69507	-659.45996	508.98956	1327.75476	-484.25153	330.44055	1376.06348	-340.05569	217.06551	1422.86084	-297.74197	229.69623	1374.98462	-409.28116	79.38563	1454.38660	-483.79901	1701.93213												 
